# xmcd
#
# Track frame offsets:
#       150
#       14105
#       26844
#       42705
#       55540
#       73427
#       87752
#       108827
#       125147
#       141825
#       159527
#       171900
#       191027
#       203822
#       216172
#       235922
#       253937
#       271502
#       289152
#       304217
#
# Disc length: 4392 seconds
#
# Revision: 3
# Processed by: cddbd v1.5.2PL0 Copyright (c) Steve Scherf et al.
# Submitted via: FreeDbEdit v0.1
#
DISCID=38112614
DTITLE=Clint Black - Ultimate Clint Black
DYEAR=2003
DGENRE=Country
TTITLE0=A Better Man
TTITLE1=Killin' Time
TTITLE2=Nobody's Home
TTITLE3=Walkin' Away
TTITLE4=Loving Blind
TTITLE5=Where Are You Now
TTITLE6=We Tell Ourselves
TTITLE7=When My Ship Comes In
TTITLE8=A Bad Goodbye (With Wynonna)
TTITLE9=State of Mind
TTITLE10=A Good Run of Bad Luck
TTITLE11=Wherever You Go
TTITLE12=Summer's Comin'
TTITLE13=One Emotion
TTITLE14=Like the Rain
TTITLE15=Something That We Do
TTITLE16=Nothin' but the Taillights
TTITLE17=The Shoes You're Wearing
TTITLE18=Dixie Lullaby (Duet With Bruce Hornsby)
TTITLE19=Been There (Duet With Steve Wariner)
EXTD=
EXTT0=
EXTT1=
EXTT2=
EXTT3=
EXTT4=
EXTT5=
EXTT6=
EXTT7=
EXTT8=
EXTT9=
EXTT10=
EXTT11=
EXTT12=
EXTT13=
EXTT14=
EXTT15=
EXTT16=
EXTT17=
EXTT18=
EXTT19=
PLAYORDER=
